<svg xmlns="http://www.w3.org/2000/svg" viewBox="0 0 512 512" fill="#007bff">
  <path d="M478.8,208.2c-19.9-43.7-56.7-43.7-76.6,0l-26.4,58.2c-4.8,10.6-15.5,17.6-27.2,17.6h-28.5v-32c0-5.9-4.8-10.7-10.7-10.7h-21.3c-5.9,0-10.7,4.8-10.7,10.7v32h-42.7v-32c0-5.9-4.8-10.7-10.7-10.7h-21.3c-5.9,0-10.7,4.8-10.7,10.7v32h-28.5c-11.7,0-22.4-7-27.2-17.6l-26.4-58.2c-19.9-43.7-56.7-43.7-76.6,0c-17.3,38.1-21.8,111.6,22.4,155.8c29.7,29.7,58.2,36.8,97.9,36.8c39.7,0,57.4-7.1,97.9-36.8c5.7-5.7,10.6-11.6,14.9-17.6c4.3,6,9.2,11.9,14.9,17.6c40.5,29.7,58.2,36.8,97.9,36.8c39.7,0,68.2-7.1,97.9-36.8C500.6,319.8,496.1,246.3,478.8,208.2z M149.3,245.3h-21.3v21.3c0,5.9-4.8,10.7-10.7,10.7h-21.3c-5.9,0-10.7-4.8-10.7-10.7v-21.3H64c-5.9,0-10.7-4.8-10.7-10.7v-21.3c0-5.9,4.8-10.7,10.7-10.7h21.3v-21.3c0-5.9,4.8-10.7,10.7-10.7h21.3c5.9,0,10.7,4.8,10.7,10.7v21.3h21.3c5.9,0,10.7,4.8,10.7,10.7v21.3C160,240.5,155.2,245.3,149.3,245.3z M405.3,234.7c-11.8,0-21.3-9.6-21.3-21.3c0-11.8,9.6-21.3,21.3-21.3c11.8,0,21.3,9.6,21.3,21.3C426.7,225.1,417.1,234.7,405.3,234.7z M448,277.3c-11.8,0-21.3-9.6-21.3-21.3c0-11.8,9.6-21.3,21.3-21.3c11.8,0,21.3,9.6,21.3,21.3C469.3,267.8,459.8,277.3,448,277.3z"/>
</svg>